<?xml version="1.0" encoding="UTF-8"?>
<svg xmlns="http://www.w3.org/2000/svg" style="display:none" aria-hidden="true">
  <defs>
    <symbol id="ic-phone" viewBox="0 0 24 24" fill="none" stroke="currentColor" stroke-width="1.6" stroke-linecap="round" stroke-linejoin="round">
      <rect x="7" y="2.5" width="10" height="19" rx="2.2"/>
      <line x1="10.5" y1="5" x2="13.5" y2="5"/>
      <circle cx="12" cy="18.6" r="0.9" fill="currentColor" stroke="none"/>
    </symbol>

    <symbol id="ic-puzzle" viewBox="0 0 24 24" fill="none" stroke="currentColor" stroke-width="1.6" stroke-linejoin="round" stroke-linecap="round">
      <path d="M4 8h6V6.8a2 2 0 1 1 4 0V8h6v6h-1.2a2 2 0 1 0 0 4H20v2a2 2 0 0 1-2 2h-4v-1.2a2 2 0 1 1-4 0V20H6a2 2 0 0 1-2-2v-4h1.2a2 2 0 1 0 0-4H4z"/>
    </symbol>

    <symbol id="ic-sprout" viewBox="0 0 24 24" fill="none" stroke="currentColor" stroke-width="1.6" stroke-linecap="round" stroke-linejoin="round">
      <path d="M12 21V12"/>
      <path d="M12 14c-3 0-6-2-6-5 3 0 6 2 6 5z"/>
      <path d="M12 12c3 0 6-2 6-5-3 0-6 2-6 5z"/>
    </symbol>

    <symbol id="ic-compass" viewBox="0 0 24 24" fill="none" stroke="currentColor" stroke-width="1.6" stroke-linecap="round" stroke-linejoin="round">
      <circle cx="12" cy="12" r="9"/>
      <polygon points="12,5.5 14.2,12 12,18.5 9.8,12"/>
    </symbol>

    <symbol id="ic-book" viewBox="0 0 24 24" fill="none" stroke="currentColor" stroke-width="1.6" stroke-linecap="round" stroke-linejoin="round">
      <rect x="5" y="3.5" width="14" height="17" rx="1.6"/>
      <line x1="5" y1="7" x2="19" y2="7"/>
      <line x1="8.5" y1="11" x2="15.5" y2="11"/>
      <line x1="8.5" y1="14.5" x2="15.5" y2="14.5"/>
    </symbol>

    <symbol id="ic-memo" viewBox="0 0 24 24" fill="none" stroke="currentColor" stroke-width="1.6" stroke-linecap="round" stroke-linejoin="round">
      <path d="M6 3.5h9l4 4v13a1 1 0 0 1-1 1H6a1 1 0 0 1-1-1V4.5a1 1 0 0 1 1-1z"/>
      <path d="M15 3.5v4h4"/>
      <line x1="8.5" y1="13" x2="15.5" y2="13"/>
      <line x1="8.5" y1="16.5" x2="13.5" y2="16.5"/>
    </symbol>

    <symbol id="ic-leaf" viewBox="0 0 24 24" fill="none" stroke="currentColor" stroke-width="1.6" stroke-linecap="round" stroke-linejoin="round">
      <path d="M20 4C11 4 4 11 4 20c9 0 16-7 16-16z"/>
      <line x1="4" y1="20" x2="14" y2="10"/>
    </symbol>

    <symbol id="ic-page" viewBox="0 0 24 24" fill="none" stroke="currentColor" stroke-width="1.6" stroke-linecap="round" stroke-linejoin="round">
      <path d="M6 3.5h9l4 4v13a1 1 0 0 1-1 1H6a1 1 0 0 1-1-1V4.5a1 1 0 0 1 1-1z"/>
      <path d="M15 3.5v4h4"/>
    </symbol>

    <symbol id="ic-dot" viewBox="0 0 24 24">
      <circle cx="12" cy="12" r="5" fill="currentColor"/>
    </symbol>

    <symbol id="ic-check" viewBox="0 0 24 24" fill="none" stroke="currentColor" stroke-width="2.2" stroke-linecap="round" stroke-linejoin="round">
      <polyline points="5,12.5 10,17.2 19,7"/>
    </symbol>

    <symbol id="ic-pencil" viewBox="0 0 24 24" fill="none" stroke="currentColor" stroke-width="1.6" stroke-linecap="round" stroke-linejoin="round">
      <path d="M3 21l1.2-4.2 12-12a1.6 1.6 0 0 1 2.3 0l1 1a1.6 1.6 0 0 1 0 2.3l-12 12z"/>
      <line x1="14" y1="7" x2="17.5" y2="10.5"/>
      <line x1="3" y1="21" x2="7.2" y2="19.8"/>
    </symbol>

    <symbol id="ic-disk" viewBox="0 0 24 24" fill="none" stroke="currentColor" stroke-width="1.6" stroke-linecap="round" stroke-linejoin="round">
      <path d="M4 3.5h13l3 3v14a1 1 0 0 1-1 1H4a1 1 0 0 1-1-1V4.5a1 1 0 0 1 1-1z"/>
      <rect x="7" y="3.5" width="9" height="5"/>
      <rect x="6.5" y="13" width="11" height="8"/>
    </symbol>

    <symbol id="ic-rocket" viewBox="0 0 24 24" fill="none" stroke="currentColor" stroke-width="1.6" stroke-linecap="round" stroke-linejoin="round">
      <path d="M12 2.5c3 2.5 5 6 5 10v4H7v-4c0-4 2-7.5 5-10z"/>
      <circle cx="12" cy="10" r="1.6"/>
      <path d="M7 14l-3 3 1 4 4-1"/>
      <path d="M17 14l3 3-1 4-4-1"/>
      <path d="M10 20l2 2 2-2"/>
    </symbol>

    <symbol id="ic-inbox" viewBox="0 0 24 24" fill="none" stroke="currentColor" stroke-width="1.6" stroke-linecap="round" stroke-linejoin="round">
      <path d="M4 14l3-7h10l3 7v5a1 1 0 0 1-1 1H5a1 1 0 0 1-1-1z"/>
      <polyline points="4,14 9,14 10.5,16.5 13.5,16.5 15,14 20,14"/>
      <polyline points="9.5,7 12,4 14.5,7"/>
      <line x1="12" y1="4" x2="12" y2="11.5"/>
    </symbol>

    <symbol id="ic-broom" viewBox="0 0 24 24" fill="none" stroke="currentColor" stroke-width="1.6" stroke-linecap="round" stroke-linejoin="round">
      <line x1="6" y1="3" x2="14" y2="11"/>
      <path d="M13 10l8 8-3 3-8-8z"/>
      <line x1="13" y1="14.5" x2="15.5" y2="17"/>
      <line x1="15.5" y1="13" x2="18" y2="15.5"/>
    </symbol>

    <symbol id="ic-undo" viewBox="0 0 24 24" fill="none" stroke="currentColor" stroke-width="1.6" stroke-linecap="round" stroke-linejoin="round">
      <polyline points="9,14 4.5,9.5 9,5"/>
      <path d="M4.5 9.5h10a5 5 0 0 1 5 5V19"/>
    </symbol>

    <symbol id="ic-warn" viewBox="0 0 24 24" fill="none" stroke="currentColor" stroke-width="1.8" stroke-linecap="round" stroke-linejoin="round">
      <path d="M12 3.4L21.2 19.5a1 1 0 0 1-.9 1.5H3.7a1 1 0 0 1-.9-1.5z"/>
      <line x1="12" y1="9.5" x2="12" y2="13.5"/>
      <circle cx="12" cy="16.8" r="1" fill="currentColor" stroke="none"/>
    </symbol>

    <symbol id="ic-x" viewBox="0 0 24 24" fill="none" stroke="currentColor" stroke-width="2" stroke-linecap="round" stroke-linejoin="round">
      <line x1="6" y1="6" x2="18" y2="18"/>
      <line x1="18" y1="6" x2="6" y2="18"/>
    </symbol>

    <symbol id="ic-star" viewBox="0 0 24 24">
      <polygon points="12,2.5 14.6,9.3 22,9.7 16.4,14.4 18.3,21.5 12,17.6 5.7,21.5 7.6,14.4 2,9.7 9.4,9.3" fill="currentColor"/>
    </symbol>
  </defs>
</svg>
